PathFileType	4	(X/Y/Z)	C:/Users/opensim2020/Desktop/walking_exp_matlab/subject06_walking20_straight_04.trc																																																																																																																															
DataRate	CameraRate	NumFrames	NumMarkers	Units	OrigDataRate	OrigDataStartFrame	OrigNumFrames																																																																																																																											
100	100	4	43	mm	100	2173	126																																																																																																																											
Frame#	Time	LFHD			RFHD			LBHD			RBHD			C7			T10			CLAV			STRN			RBAK			LSHO			LUPA			LELB			LFRM			LWRA			LWRB			LFIN			RSHO			RUPA			RELB			RFRM			RWRA			RWRB			RFIN			LASI			RASI			LPSI			RPSI			LTHI			LKNE			LTIB			LANK			LHEE			LTOE			RTHI			RKNE			RTIB			RANK			RHEE			RTOE			*39			*40			*41			*42		
		X1	Y1	Z1	X2	Y2	Z2	X3	Y3	Z3	X4	Y4	Z4	X5	Y5	Z5	X6	Y6	Z6	X7	Y7	Z7	X8	Y8	Z8	X9	Y9	Z9	X10	Y10	Z10	X11	Y11	Z11	X12	Y12	Z12	X13	Y13	Z13	X14	Y14	Z14	X15	Y15	Z15	X16	Y16	Z16	X17	Y17	Z17	X18	Y18	Z18	X19	Y19	Z19	X20	Y20	Z20	X21	Y21	Z21	X22	Y22	Z22	X23	Y23	Z23	X24	Y24	Z24	X25	Y25	Z25	X26	Y26	Z26	X27	Y27	Z27	X28	Y28	Z28	X29	Y29	Z29	X30	Y30	Z30	X31	Y31	Z31	X32	Y32	Z32	X33	Y33	Z33	X34	Y34	Z34	X35	Y35	Z35	X36	Y36	Z36	X37	Y37	Z37	X38	Y38	Z38	X39	Y39	Z39	X40	Y40	Z40	X41	Y41	Z41	X42	Y42	Z42	X43	Y43	Z43
																																																																																																																																		
16	0.15	-987.39893	1649.17444	-1495.97473	-988.21747	1631.22266	-1365.33313	-1121.66492	1597.50806	-1499.69971	-1120.85571	1585.09009	-1371.67664	-1123.21741	1434.88257	-1447.3197	-1161.15674	1105.50989	-1441.79565	-1013.18134	1356.91699	-1450.31311	-976.31458	1181.06165	-1463.32251	-1195.51819	1262.07068	-1372.48645	-1076.25525	1392.65283	-1608.97949	-1055.12695	1200.13538	-1694.58569	-1030.6864	1093.32239	-1719.53442	-914.18549	1008.84888	-1748.75806	-788.67059	989.79718	-1710.58179	-818.74017	935.58942	-1743.77063	-729.06128	929.05872	-1750.49475	-1056.53406	1385.65833	-1287.54187	-1136.88892	1204.83057	-1197.44067	-1159.43005	1086.10474	-1176.59155	-1185.5564	970.2832	-1149.47766	-1180.91602	816.02173	-1166.17432	-1231.24219	840.79797	-1128.08044	-1226.11804	756.51886	-1119.8877	-999.90881	941.46722	-1561.97656	-969.03284	956.91754	-1347.03381	-1149.96411	972.10352	-1511.87402	-1120.4425	980.83881	-1347.11914	-1125.50037	638.66705	-1620.73621	-1159.09253	476.2049	-1612.6344	-1356.50793	309.86453	-1600.8606	-1475.28955	186.61559	-1562.99207	-1504.06543	202.07689	-1512.15137	-1411.39429	52.45679	-1579.66016	-949.19525	634.46277	-1276.19128	-903.15625	521.45111	-1310.90576	-890.24103	254.99658	-1311.50012	-873.85388	71.74957	-1360.08691	-909.37976	46.95951	-1406.70068	-721.34052	45.05174	-1363.61633	-1087.09595	1686.09253	-1435.18335	NaN	NaN	NaN	NaN	NaN	NaN	NaN	NaN	NaN
17	0.16	-972.4176	1651.27197	-1495.96692	-973.24152	1633.51611	-1365.29919	-1106.76978	1599.76843	-1499.66992	-1105.92847	1587.50928	-1371.49731	-1108.08887	1436.8728	-1446.93555	-1145.67468	1107.92603	-1441.29932	-997.74805	1359.30579	-1449.927	-960.34564	1183.64026	-1462.62219	-1179.46765	1264.44519	-1371.5144	-1061.44556	1395.04626	-1608.22034	-1042.01782	1201.99609	-1692.96008	-1018.64734	1094.96643	-1716.84619	-903.44659	1008.21362	-1746.02295	-778.37897	987.63458	-1708.22546	-809.71863	933.86761	-1741.28137	-719.90442	925.92261	-1748.28735	-1040.75623	1388.354	-1287.20081	-1119.20178	1206.85803	-1196.59534	-1140.13806	1087.85291	-1176.05798	-1164.64331	971.76154	-1148.91101	-1158.2699	817.4538	-1165.68506	-1208.65674	841.78699	-1127.11389	-1202.85266	757.40509	-1119.16211	-983.65216	943.66833	-1560.48157	-953.40381	960.22211	-1345.78833	-1133.85693	973.98486	-1511.84802	-1105.12109	983.68909	-1347.17163	-1103.69287	638.01556	-1620.26416	-1132.76123	474.83746	-1613.13391	-1333.49695	315.1792	-1599.63977	-1456.90112	198.03119	-1561.41626	-1483.15845	215.50261	-1509.87292	-1404.33704	57.93406	-1578.24512	-935.06232	637.14233	-1276.52148	-890.75763	522.70746	-1311.1687	-884.46307	255.71733	-1311.91748	-871.9502	72.17471	-1360.3894	-908.43677	47.60553	-1406.57654	-719.98334	43.51551	-1363.76392	-1072.02795	1688.39099	-1435.20776	NaN	NaN	NaN	NaN	NaN	NaN	NaN	NaN	NaN
18	0.17	-957.45514	1653.44312	-1495.87268	-958.42596	1635.77942	-1365.2207	-1091.80566	1601.77881	-1499.65442	-1090.99634	1589.5863	-1371.52612	-1092.90674	1438.68774	-1446.4519	-1130.36426	1110.26025	-1440.78857	-982.29584	1361.56616	-1449.59387	-944.62915	1186.00586	-1461.9021	-1163.64966	1266.79785	-1370.49597	-1046.64905	1397.17639	-1607.47681	-1028.85815	1203.76489	-1691.36145	-1006.99725	1096.37268	-1714.30359	-893.58398	1007.55109	-1743.53528	-768.58575	984.65283	-1705.8689	-800.67639	930.87756	-1738.08533	-711.53314	921.65839	-1745.95667	-1024.93896	1391.04333	-1286.91772	-1101.16125	1208.72607	-1195.84363	-1120.63391	1089.41016	-1175.48267	-1143.30444	973.02344	-1148.28809	-1135.37988	818.7655	-1165.42993	-1185.13184	842.48181	-1126.42163	-1178.48096	758.05365	-1118.58093	-967.66467	945.70416	-1559.15491	-938.66638	963.4787	-1344.18213	-1118.09033	975.78693	-1511.96326	-1090.43762	986.31921	-1347.31995	-1081.64148	637.27954	-1619.8811	-1105.82776	473.73428	-1613.77185	-1308.35474	319.63412	-1598.75513	-1435.88794	208.01332	-1559.44775	-1459.54858	227.67447	-1507.49866	-1394.77698	64.44729	-1577.13599	-920.58704	639.70557	-1276.92224	-879.29498	523.71118	-1311.37561	-877.77032	256.2529	-1312.39575	-870.427	72.31625	-1360.66174	-907.94385	48.01435	-1406.39648	-718.77618	42.47258	-1364.1731	-1057.23633	1690.49548	-1435.27917	NaN	NaN	NaN	NaN	NaN	NaN	NaN	NaN	NaN
19	0.18	-942.53632	1655.68274	-1495.77087	-943.60748	1638.08362	-1365.09314	-1076.71265	1603.66235	-1499.78442	-1076.08252	1591.49585	-1371.60657	-1077.57617	1440.62024	-1445.95776	-1115.27722	1112.5802	-1440.22412	-966.96875	1363.67834	-1449.20422	-929.17889	1188.18738	-1461.09338	-1147.98389	1269.21167	-1369.3302	-1031.84644	1399.07275	-1606.91223	-1015.73029	1205.30225	-1689.84473	-995.73364	1097.4729	-1712.01978	-884.03223	1006.09955	-1741.22888	-759.33252	980.91296	-1703.61438	-792.63831	927.65631	-1735.54395	-703.79364	916.41345	-1743.63196	-1008.89038	1393.52124	-1286.59448	-1083.19104	1210.46167	-1194.92847	-1101.01782	1090.83447	-1174.66467	-1121.61096	974.0213	-1147.66382	-1111.53979	819.96301	-1165.16028	-1161.35254	842.85248	-1125.66565	-1153.41443	758.50909	-1117.97754	-951.84174	947.58606	-1557.74902	-924.37769	966.08057	-1342.40515	-1102.66992	977.47382	-1512.2052	-1075.93591	988.46228	-1347.4873	-1059.67651	636.74738	-1619.60828	-1077.89233	472.41931	-1613.40967	-1281.5116	323.29779	-1598.23486	-1412.54492	216.61649	-1557.79382	-1433.86621	238.00261	-1505.32056	-1382.13379	69.12059	-1574.68506	-906.66339	641.80042	-1277.1051	-868.97522	524.41846	-1311.422	-871.883	256.53329	-1312.79199	-869.58521	72.46178	-1360.92297	-907.75427	48.25739	-1406.38208	-717.99847	41.8217	-1364.87061	-1042.52283	1692.44971	-1435.33105	NaN	NaN	NaN	NaN	NaN	NaN	NaN	NaN	NaN
